<svg width="40" height="40" viewBox="0 0 40 40" fill="none" xmlns="http://www.w3.org/2000/svg">
<g clip-path="url(#clip0_1_1917)">
<path d="M39.9938 19.7464C39.9286 18.4433 39.3566 17.2173 38.3999 16.3301C37.4432 15.4429 36.1776 14.9649 34.8732 14.9979C33.5689 15.031 32.3292 15.5727 31.4187 16.5072C30.5082 17.4418 29.9991 18.6952 30 20V28.3333C30 27.8913 29.8244 27.4674 29.5119 27.1548C29.1993 26.8422 28.7754 26.6667 28.3334 26.6667H11.6667C11.2247 26.6667 10.8007 26.8422 10.4882 27.1548C10.1756 27.4674 10 27.8913 10 28.3333V20C9.99996 19.0833 9.74791 18.1843 9.27143 17.4013C8.79495 16.6182 8.11237 15.9812 7.2983 15.5598C6.48422 15.1385 5.56999 14.949 4.65552 15.0122C3.74105 15.0754 2.86154 15.3887 2.11312 15.9179C1.3647 16.4472 0.776167 17.172 0.411857 18.0131C0.0475467 18.8543 -0.0785237 19.7794 0.0474254 20.6873C0.173374 21.5953 0.546496 22.4511 1.12601 23.1614C1.70552 23.8716 2.46912 24.4088 3.33334 24.7144V33.3333C3.33334 33.7753 3.50893 34.1993 3.8215 34.5118C4.13406 34.8244 4.55798 35 5.00001 35H6.66668V38.3333H10V35H30V38.3333H33.3334V35H35C35.4421 35 35.866 34.8244 36.1786 34.5118C36.4911 34.1993 36.6667 33.7753 36.6667 33.3333V24.7144C37.6824 24.3551 38.5549 23.6775 39.1544 22.7823C39.7539 21.8872 40.0483 20.8224 39.9938 19.7464Z" fill="#029FAE"/>
<path d="M11.6665 19.9998V24.9998H28.3332V19.9998C28.3351 18.5223 28.8269 17.087 29.7316 15.9189C30.6364 14.7507 31.903 13.9156 33.3332 13.5442V9.99984C33.3307 7.79046 32.4519 5.67229 30.8896 4.11002C29.3274 2.54776 27.2092 1.66899 24.9998 1.6665H14.9998C12.7905 1.66899 10.6723 2.54776 9.11002 4.11002C7.54776 5.67229 6.66899 7.79046 6.6665 9.99984V13.5442C8.09664 13.9156 9.36325 14.7507 10.268 15.9189C11.1728 17.087 11.6646 18.5223 11.6665 19.9998ZM23.3332 8.33317C23.6628 8.33317 23.985 8.43092 24.2591 8.61405C24.5332 8.79719 24.7468 9.05749 24.873 9.36203C24.9991 9.66657 25.0321 10.0017 24.9678 10.325C24.9035 10.6483 24.7448 10.9453 24.5117 11.1783C24.2786 11.4114 23.9816 11.5702 23.6583 11.6345C23.335 11.6988 22.9999 11.6658 22.6954 11.5396C22.3908 11.4135 22.1305 11.1999 21.9474 10.9258C21.7642 10.6517 21.6665 10.3295 21.6665 9.99984C21.6665 9.55781 21.8421 9.13389 22.1547 8.82132C22.4672 8.50876 22.8911 8.33317 23.3332 8.33317ZM23.3332 13.3332C23.6628 13.3332 23.985 13.4309 24.2591 13.6141C24.5332 13.7972 24.7468 14.0575 24.873 14.362C24.9991 14.6666 25.0321 15.0017 24.9678 15.325C24.9035 15.6483 24.7448 15.9453 24.5117 16.1783C24.2786 16.4114 23.9816 16.5702 23.6583 16.6345C23.335 16.6988 22.9999 16.6658 22.6954 16.5396C22.3908 16.4135 22.1305 16.1999 21.9474 15.9258C21.7642 15.6517 21.6665 15.3295 21.6665 14.9998C21.6665 14.5578 21.8421 14.1339 22.1547 13.8213C22.4672 13.5088 22.8911 13.3332 23.3332 13.3332ZM16.6665 8.33317C16.9961 8.33317 17.3184 8.43092 17.5925 8.61405C17.8665 8.79719 18.0802 9.05749 18.2063 9.36203C18.3324 9.66657 18.3655 10.0017 18.3011 10.325C18.2368 10.6483 18.0781 10.9453 17.845 11.1783C17.6119 11.4114 17.315 11.5702 16.9917 11.6345C16.6684 11.6988 16.3332 11.6658 16.0287 11.5396C15.7242 11.4135 15.4639 11.1999 15.2807 10.9258C15.0976 10.6517 14.9998 10.3295 14.9998 9.99984C14.9998 9.55781 15.1754 9.13389 15.488 8.82132C15.8006 8.50876 16.2245 8.33317 16.6665 8.33317ZM16.6665 13.3332C16.9961 13.3332 17.3184 13.4309 17.5925 13.6141C17.8665 13.7972 18.0802 14.0575 18.2063 14.362C18.3324 14.6666 18.3655 15.0017 18.3011 15.325C18.2368 15.6483 18.0781 15.9453 17.845 16.1783C17.6119 16.4114 17.315 16.5702 16.9917 16.6345C16.6684 16.6988 16.3332 16.6658 16.0287 16.5396C15.7242 16.4135 15.4639 16.1999 15.2807 15.9258C15.0976 15.6517 14.9998 15.3295 14.9998 14.9998C14.9998 14.5578 15.1754 14.1339 15.488 13.8213C15.8006 13.5088 16.2245 13.3332 16.6665 13.3332Z" fill="#029FAE"/>
</g>
<defs>
<clipPath id="clip0_1_1917">
<rect width="40" height="40" fill="white"/>
</clipPath>
</defs>
</svg>
