<svg width="25" height="24" viewBox="0 0 25 24" fill="none" xmlns="http://www.w3.org/2000/svg">
<rect width="24" height="24" transform="translate(0.54541)" fill="white" style="mix-blend-mode:multiply"/>
<path d="M19.2954 1.5C17.6332 1.50275 16.0105 2.00708 14.6396 2.94704C13.2686 3.887 12.2133 5.21881 11.6116 6.7683C11.1295 6.06903 10.4849 5.49727 9.73308 5.10216C8.98125 4.70705 8.14473 4.50041 7.29541 4.5H5.04541V6.75C5.04696 8.14191 5.60058 9.47637 6.58481 10.4606C7.56904 11.4448 8.9035 11.9985 10.2954 12H11.0454V18.787C9.32271 18.9554 7.71259 19.7191 6.49216 20.9465L7.55266 22.0071C8.18005 21.3798 8.93874 20.8995 9.7741 20.6006C10.6095 20.3018 11.5007 20.192 12.3836 20.279C13.2665 20.3661 14.1191 20.6478 14.8801 21.104C15.641 21.5602 16.2913 22.1794 16.7841 22.9172L18.0303 22.0826C17.4155 21.1638 16.6048 20.3926 15.6564 19.8244C14.708 19.2562 13.6456 18.9052 12.5454 18.7965V12H13.2954C15.4827 11.9975 17.5797 11.1275 19.1263 9.58089C20.6729 8.03425 21.5429 5.93727 21.5454 3.75V1.5H19.2954ZM10.2954 10.5C9.3012 10.4989 8.34803 10.1034 7.64501 9.4004C6.94199 8.69738 6.54654 7.74421 6.54541 6.75V6H7.29541C8.28964 6.00107 9.24285 6.3965 9.94588 7.09953C10.6489 7.80256 11.0443 8.75577 11.0454 9.75V10.5H10.2954ZM20.0454 3.75C20.0434 5.5396 19.3316 7.25534 18.0662 8.52078C16.8007 9.78622 15.085 10.498 13.2954 10.5H12.5454V9.75C12.5474 7.9604 13.2592 6.24466 14.5246 4.97922C15.7901 3.71378 17.5058 3.00199 19.2954 3H20.0454V3.75Z" fill="#007580"/>
</svg>
